if (_typeface_js && _typeface_js.loadFace) _typeface_js.loadFace({"glyphs":{"S":{"x_min":65.59375,"x_max":653.015625,"ha":716,"o":"m 370 937 l 491 923 l 614 872 l 614 744 l 490 804 l 378 821 l 266 788 l 220 694 l 272 597 l 384 542 l 477 505 l 563 452 l 627 375 l 653 262 l 627 145 l 559 59 l 460 6 l 338 -11 l 202 7 l 65 70 l 65 203 l 153 150 l 245 116 l 336 104 l 460 143 l 514 252 l 449 368 l 322 428 l 202 480 l 115 561 l 81 686 l 105 796 l 166 874 l 258 922 l 370 937 "},"a":{"x_min":41.484375,"x_max":653.015625,"ha":748,"o":"m 653 631 l 653 505 l 653 379 l 653 252 l 653 126 l 653 0 l 535 0 l 535 48 l 453 3 l 359 -11 l 233 13 l 132 81 l 65 185 l 41 315 l 64 445 l 129 549 l 228 618 l 354 643 l 450 626 l 535 582 l 535 631 l 653 631 m 373 95 l 459 112 l 535 163 l 535 265 l 535 366 l 535 467 l 459 518 l 373 536 l 264 506 l 189 427 l 160 315 l 189 203 l 264 125 l 373 95 "},"T":{"x_min":32.796875,"x_max":777.453125,"ha":810,"o":"m 777 810 l 676 810 l 575 810 l 474 810 l 474 694 l 474 578 l 474 463 l 474 347 l 474 231 l 474 115 l 474 0 l 335 0 l 335 115 l 335 231 l 335 347 l 335 463 l 335 578 l 335 694 l 335 810 l 234 810 l 134 810 l 32 810 l 32 926 l 157 926 l 280 926 l 405 926 l 529 926 l 653 926 l 777 926 l 777 810 "},"N":{"x_min":104.171875,"x_max":932.75,"ha":1037,"o":"m 932 0 l 782 0 l 713 90 l 646 180 l 577 271 l 510 360 l 441 451 l 374 542 l 305 631 l 238 722 l 238 601 l 238 481 l 238 360 l 238 241 l 238 120 l 238 0 l 104 0 l 104 115 l 104 231 l 104 347 l 104 463 l 104 578 l 104 694 l 104 810 l 104 926 l 253 926 l 322 835 l 389 745 l 458 654 l 525 565 l 594 474 l 662 384 l 730 294 l 798 204 l 798 325 l 798 444 l 798 565 l 798 685 l 798 805 l 798 926 l 932 926 l 932 810 l 932 694 l 932 578 l 932 463 l 932 347 l 932 231 l 932 115 l 932 0 "},"K":{"x_min":107.0625,"x_max":835.328125,"ha":853,"o":"m 245 0 l 107 0 l 107 115 l 107 231 l 107 347 l 107 463 l 107 578 l 107 694 l 107 810 l 107 926 l 245 926 l 245 810 l 245 694 l 245 578 l 245 463 l 245 347 l 245 231 l 245 115 l 245 0 m 417 495 l 487 412 l 556 330 l 626 247 l 696 164 l 765 82 l 835 0 l 746 0 l 658 0 l 578 98 l 498 196 l 417 295 l 337 393 l 257 491 l 327 578 l 396 665 l 466 752 l 536 839 l 605 926 l 777 926 l 705 840 l 633 754 l 561 667 l 490 581 l 417 495 "},"d":{"x_min":41.484375,"x_max":653.015625,"ha":748,"o":"m 653 926 l 653 810 l 653 694 l 653 578 l 653 463 l 653 347 l 653 231 l 653 115 l 653 0 l 535 0 l 535 49 l 450 3 l 354 -11 l 228 13 l 129 81 l 64 185 l 41 315 l 65 445 l 132 549 l 233 618 l 359 643 l 453 627 l 535 583 l 535 697 l 535 812 l 535 926 l 653 926 m 373 95 l 459 112 l 535 163 l 535 265 l 535 366 l 535 467 l 459 518 l 373 536 l 264 506 l 189 427 l 160 315 l 189 203 l 264 125 l 373 95 "},"Y":{"x_min":27.015625,"x_max":862.34375,"ha":889,"o":"m 514 447 l 514 335 l 514 223 l 514 111 l 514 0 l 375 0 l 375 111 l 375 223 l 375 335 l 375 447 l 305 543 l 236 638 l 165 735 l 96 830 l 27 926 l 113 926 l 200 926 l 262 837 l 324 749 l 385 660 l 447 572 l 509 660 l 571 749 l 632 837 l 694 926 l 862 926 l 792 830 l 723 735 l 653 638 l 583 543 l 514 447 "},"E":{"x_min":107.0625,"x_max":677.140625,"ha":731,"o":"m 677 810 l 569 810 l 461 810 l 354 810 l 245 810 l 245 667 l 245 525 l 370 525 l 494 525 l 619 525 l 619 414 l 494 414 l 370 414 l 245 414 l 245 315 l 245 215 l 245 115 l 354 115 l 461 115 l 569 115 l 677 115 l 677 0 l 563 0 l 449 0 l 334 0 l 220 0 l 107 0 l 107 115 l 107 231 l 107 347 l 107 463 l 107 578 l 107 694 l 107 810 l 107 926 l 220 926 l 334 926 l 449 926 l 563 926 l 677 926 l 677 810 "},"j":{"x_min":-60.765625,"x_max":246.9375,"ha":342,"o":"m 170 886 l 246 810 l 170 734 l 95 810 l 170 886 m 229 578 l 229 468 l 229 358 l 229 247 l 229 137 l 229 27 l 229 -81 l 209 -196 l 152 -283 l 60 -339 l -60 -358 l -60 -248 l 61 -201 l 111 -72 l 111 35 l 111 144 l 111 252 l 111 361 l 111 469 l 111 578 l 229 578 "},"y":{"x_min":30.859375,"x_max":626.984375,"ha":658,"o":"m 388 0 l 352 -98 l 315 -195 l 278 -294 l 158 -294 l 194 -195 l 231 -98 l 268 0 l 228 105 l 189 210 l 149 315 l 109 421 l 70 526 l 30 631 l 155 631 l 198 512 l 242 392 l 285 273 l 328 154 l 372 273 l 415 392 l 459 512 l 502 631 l 626 631 l 587 526 l 547 421 l 507 315 l 467 210 l 428 105 l 388 0 "},"Z":{"x_min":46.296875,"x_max":790,"ha":836,"o":"m 790 810 l 719 723 l 648 636 l 577 549 l 507 463 l 436 376 l 365 289 l 295 202 l 224 115 l 337 115 l 450 115 l 564 115 l 677 115 l 790 115 l 790 0 l 665 0 l 542 0 l 417 0 l 294 0 l 169 0 l 46 0 l 46 115 l 116 202 l 188 289 l 258 376 l 328 463 l 400 549 l 470 636 l 542 723 l 612 810 l 499 810 l 385 810 l 272 810 l 159 810 l 46 810 l 46 926 l 169 926 l 294 926 l 417 926 l 542 926 l 665 926 l 790 926 l 790 810 "},"u":{"x_min":101.28125,"x_max":669.421875,"ha":778,"o":"m 669 631 l 669 505 l 669 379 l 669 252 l 669 126 l 669 0 l 551 0 l 551 49 l 466 3 l 370 -11 l 257 8 l 172 66 l 119 154 l 101 265 l 101 387 l 101 509 l 101 631 l 218 631 l 218 513 l 218 394 l 218 275 l 268 151 l 391 99 l 475 116 l 551 166 l 551 282 l 551 399 l 551 515 l 551 631 l 669 631 "},"k":{"x_min":90.671875,"x_max":694.5,"ha":710,"o":"m 335 279 l 272 215 l 209 150 l 209 0 l 90 0 l 90 115 l 90 231 l 90 347 l 90 463 l 90 578 l 90 694 l 90 810 l 90 926 l 209 926 l 209 799 l 209 673 l 209 547 l 209 421 l 209 295 l 273 360 l 272 363 l 275 363 l 362 453 l 450 542 l 537 631 l 681 631 l 594 542 l 505 452 l 417 362 l 487 272 l 555 181 l 625 90 l 694 0 l 547 0 l 477 93 l 406 186 l 335 279 "},"g":{"x_min":41.484375,"x_max":653.015625,"ha":748,"o":"m 653 631 l 653 522 l 653 414 l 653 305 l 653 197 l 653 88 l 653 -19 l 630 -134 l 569 -223 l 476 -280 l 361 -300 l 240 -279 l 142 -221 l 142 -111 l 233 -179 l 349 -203 l 442 -179 l 509 -113 l 535 -19 l 535 75 l 450 29 l 354 14 l 228 37 l 129 101 l 64 200 l 41 328 l 65 457 l 132 556 l 233 620 l 359 643 l 453 627 l 535 583 l 535 631 l 653 631 m 373 112 l 459 129 l 535 178 l 535 278 l 535 379 l 535 479 l 459 527 l 373 544 l 264 516 l 189 439 l 160 328 l 189 218 l 264 141 l 373 112 "},"t":{"x_min":54.015625,"x_max":390.65625,"ha":431,"o":"m 218 445 l 218 274 l 268 145 l 390 98 l 390 -11 l 269 7 l 177 63 l 120 150 l 100 265 l 100 354 l 100 445 l 54 445 l 54 544 l 100 544 l 100 645 l 100 747 l 218 747 l 218 645 l 218 544 l 390 544 l 390 445 l 218 445 "},"e":{"x_min":41.484375,"x_max":705.109375,"ha":748,"o":"m 705 289 l 597 289 l 488 289 l 380 289 l 271 289 l 163 289 l 203 185 l 283 115 l 390 90 l 513 117 l 610 191 l 610 77 l 506 10 l 378 -11 l 268 4 l 175 49 l 104 119 l 57 209 l 41 315 l 67 445 l 137 549 l 243 618 l 373 643 l 479 626 l 570 580 l 641 507 l 688 408 l 705 289 m 163 370 l 267 370 l 370 370 l 474 370 l 578 370 l 535 470 l 463 534 l 373 557 l 274 533 l 201 467 l 163 370 "},"J":{"x_min":0.96875,"x_max":524.734375,"ha":632,"o":"m 524 926 l 524 800 l 524 675 l 524 549 l 524 424 l 524 299 l 503 170 l 442 72 l 348 10 l 226 -11 l 102 8 l 0 67 l 0 221 l 93 151 l 195 124 l 290 145 l 358 208 l 385 312 l 385 435 l 385 557 l 385 681 l 385 803 l 385 926 l 524 926 "},"W":{"x_min":46.296875,"x_max":1342.703125,"ha":1389,"o":"m 1053 0 l 914 0 l 882 104 l 851 208 l 819 312 l 789 415 l 757 519 l 726 624 l 694 728 l 662 624 l 631 519 l 599 415 l 569 312 l 537 208 l 506 104 l 474 0 l 335 0 l 299 115 l 263 231 l 226 347 l 190 463 l 154 578 l 118 694 l 81 810 l 46 926 l 185 926 l 217 821 l 247 717 l 279 613 l 310 510 l 342 406 l 373 301 l 405 197 l 436 301 l 467 406 l 499 510 l 530 613 l 562 717 l 593 821 l 625 926 l 763 926 l 795 821 l 826 717 l 858 613 l 889 510 l 921 406 l 952 301 l 983 197 l 1015 301 l 1046 406 l 1078 510 l 1109 613 l 1141 717 l 1171 821 l 1203 926 l 1342 926 l 1306 810 l 1270 694 l 1233 578 l 1198 463 l 1161 347 l 1125 231 l 1089 115 l 1053 0 "},"v":{"x_min":30.859375,"x_max":626.984375,"ha":658,"o":"m 388 0 l 268 0 l 228 105 l 189 210 l 149 315 l 109 421 l 70 526 l 30 631 l 155 631 l 198 512 l 242 393 l 285 273 l 328 155 l 372 273 l 415 393 l 459 512 l 502 631 l 626 631 l 587 526 l 547 421 l 507 315 l 467 210 l 428 105 l 388 0 "},"s":{"x_min":63.65625,"x_max":573.921875,"ha":632,"o":"m 320 641 l 428 628 l 537 585 l 537 472 l 423 525 l 321 542 l 196 463 l 239 399 l 330 371 l 441 340 l 535 284 l 573 182 l 539 76 l 446 10 l 309 -11 l 187 3 l 63 55 l 63 172 l 186 112 l 314 90 l 413 113 l 455 182 l 404 254 l 301 282 l 191 316 l 110 373 l 79 464 l 109 563 l 193 622 l 320 641 "},"B":{"x_min":107.0625,"x_max":756.234375,"ha":800,"o":"m 107 926 l 211 926 l 316 926 l 420 926 l 532 907 l 620 858 l 678 783 l 698 688 l 664 573 l 576 494 l 670 443 l 733 362 l 756 259 l 734 156 l 671 74 l 576 19 l 455 0 l 339 0 l 222 0 l 107 0 l 107 115 l 107 231 l 107 347 l 107 463 l 107 578 l 107 694 l 107 810 l 107 926 m 245 818 l 245 677 l 245 536 l 413 536 l 517 577 l 559 677 l 517 777 l 413 818 l 245 818 m 245 434 l 245 325 l 245 216 l 245 107 l 347 107 l 449 107 l 569 155 l 617 271 l 569 385 l 449 434 l 347 434 l 245 434 "},"H":{"x_min":107.0625,"x_max":903.8125,"ha":1010,"o":"m 903 0 l 759 0 l 759 101 l 759 202 l 759 304 l 759 406 l 631 406 l 504 406 l 378 406 l 250 406 l 250 304 l 250 202 l 250 101 l 250 0 l 107 0 l 107 115 l 107 231 l 107 347 l 107 463 l 107 578 l 107 694 l 107 810 l 107 926 l 250 926 l 250 795 l 250 665 l 250 535 l 378 535 l 504 535 l 631 535 l 759 535 l 759 665 l 759 795 l 759 926 l 903 926 l 903 810 l 903 694 l 903 578 l 903 463 l 903 347 l 903 231 l 903 115 l 903 0 "},"c":{"x_min":48.234375,"x_max":590.328125,"ha":637,"o":"m 371 643 l 492 620 l 590 554 l 590 431 l 499 504 l 383 531 l 274 502 l 195 426 l 165 315 l 195 204 l 274 128 l 383 99 l 499 126 l 590 200 l 590 77 l 492 10 l 371 -11 l 244 13 l 141 81 l 73 185 l 48 315 l 73 445 l 141 549 l 244 618 l 371 643 "},"q":{"x_min":41.484375,"x_max":653.015625,"ha":748,"o":"m 653 631 l 653 516 l 653 400 l 653 284 l 653 168 l 653 53 l 653 -62 l 653 -178 l 653 -294 l 535 -294 l 535 -180 l 535 -65 l 535 48 l 453 3 l 359 -11 l 233 13 l 132 81 l 65 185 l 41 315 l 64 445 l 129 549 l 228 618 l 354 643 l 450 626 l 535 582 l 535 631 l 653 631 m 373 95 l 459 112 l 535 163 l 535 265 l 535 366 l 535 467 l 459 518 l 373 536 l 264 506 l 189 427 l 160 315 l 189 203 l 264 125 l 373 95 "},"b":{"x_min":93.5625,"x_max":705.109375,"ha":748,"o":"m 387 643 l 514 618 l 614 549 l 681 445 l 705 315 l 681 185 l 616 81 l 517 13 l 392 -11 l 296 3 l 211 49 l 211 0 l 93 0 l 93 115 l 93 231 l 93 347 l 93 463 l 93 578 l 93 694 l 93 810 l 93 926 l 211 926 l 211 811 l 211 697 l 211 582 l 293 626 l 387 643 m 373 95 l 482 125 l 558 203 l 587 315 l 558 427 l 482 506 l 373 536 l 286 518 l 211 466 l 211 365 l 211 265 l 211 163 l 286 112 l 373 95 "},"D":{"x_min":107.0625,"x_max":955.90625,"ha":989,"o":"m 107 926 l 229 926 l 352 926 l 474 926 l 601 909 l 717 864 l 815 793 l 890 700 l 938 589 l 955 463 l 938 336 l 890 225 l 815 132 l 717 61 l 601 16 l 474 0 l 352 0 l 229 0 l 107 0 l 107 115 l 107 231 l 107 347 l 107 463 l 107 578 l 107 694 l 107 810 l 107 926 m 245 800 l 245 687 l 245 574 l 245 462 l 245 350 l 245 237 l 245 124 l 359 124 l 474 124 l 579 140 l 670 188 l 742 260 l 789 353 l 806 463 l 789 572 l 742 665 l 670 737 l 579 784 l 474 800 l 359 800 l 245 800 "},"I":{"x_min":114.78125,"x_max":253.6875,"ha":368,"o":"m 253 0 l 114 0 l 114 115 l 114 231 l 114 347 l 114 463 l 114 578 l 114 694 l 114 810 l 114 926 l 253 926 l 253 810 l 253 694 l 253 578 l 253 463 l 253 347 l 253 231 l 253 115 l 253 0 "},"G":{"x_min":32.796875,"x_max":878.734375,"ha":958,"o":"m 534 937 l 653 924 l 773 883 l 878 815 l 878 669 l 782 742 l 667 790 l 542 808 l 425 790 l 326 743 l 248 669 l 199 573 l 182 462 l 199 348 l 248 251 l 325 175 l 422 126 l 537 109 l 658 132 l 762 196 l 762 295 l 762 394 l 641 394 l 520 394 l 520 497 l 640 497 l 759 497 l 878 497 l 878 372 l 878 245 l 878 120 l 773 49 l 653 3 l 524 -11 l 410 0 l 306 35 l 216 90 l 139 163 l 81 251 l 45 353 l 32 463 l 44 570 l 80 669 l 136 758 l 211 831 l 303 888 l 411 925 l 534 937 "},"z":{"x_min":51.125,"x_max":579.71875,"ha":632,"o":"m 579 524 l 504 440 l 429 357 l 353 273 l 277 190 l 202 107 l 327 107 l 454 107 l 579 107 l 579 0 l 473 0 l 368 0 l 262 0 l 157 0 l 51 0 l 51 107 l 126 190 l 202 273 l 277 357 l 354 440 l 429 524 l 302 524 l 177 524 l 51 524 l 51 631 l 157 631 l 262 631 l 368 631 l 473 631 l 579 631 l 579 524 "},"U":{"x_min":88.734375,"x_max":864.265625,"ha":952,"o":"m 864 926 l 864 815 l 864 705 l 864 594 l 864 484 l 864 373 l 844 246 l 789 139 l 705 58 l 598 6 l 476 -11 l 354 6 l 246 58 l 163 139 l 108 245 l 88 373 l 88 484 l 88 594 l 88 705 l 88 815 l 88 926 l 232 926 l 232 815 l 232 705 l 232 594 l 232 484 l 232 373 l 265 239 l 352 148 l 476 115 l 599 148 l 686 239 l 719 373 l 719 484 l 719 594 l 719 705 l 719 815 l 719 926 l 864 926 "},"w":{"x_min":30.859375,"x_max":974.234375,"ha":1004,"o":"m 765 0 l 663 0 l 623 119 l 582 238 l 543 357 l 502 477 l 462 357 l 421 238 l 381 119 l 341 0 l 238 0 l 203 105 l 168 210 l 134 315 l 100 421 l 65 526 l 30 631 l 153 631 l 189 517 l 225 403 l 261 288 l 298 174 l 336 288 l 376 403 l 414 517 l 454 631 l 550 631 l 589 517 l 627 403 l 667 288 l 706 174 l 742 288 l 778 403 l 815 517 l 851 631 l 974 631 l 939 526 l 904 421 l 870 315 l 835 210 l 800 105 l 765 0 "},"F":{"x_min":107.0625,"x_max":677.140625,"ha":690,"o":"m 677 810 l 569 810 l 461 810 l 354 810 l 245 810 l 245 712 l 245 614 l 245 517 l 370 517 l 494 517 l 619 517 l 619 406 l 494 406 l 370 406 l 245 406 l 245 304 l 245 202 l 245 101 l 245 0 l 107 0 l 107 115 l 107 231 l 107 347 l 107 463 l 107 578 l 107 694 l 107 810 l 107 926 l 220 926 l 334 926 l 449 926 l 563 926 l 677 926 l 677 810 "},"r":{"x_min":100.3125,"x_max":583.578125,"ha":579,"o":"m 395 643 l 502 622 l 583 563 l 583 435 l 494 502 l 380 527 l 295 510 l 218 463 l 218 348 l 218 231 l 218 115 l 218 0 l 100 0 l 100 126 l 100 252 l 100 379 l 100 505 l 100 631 l 218 631 l 218 579 l 301 626 l 395 643 "},"x":{"x_min":30.859375,"x_max":653.015625,"ha":684,"o":"m 342 240 l 262 119 l 182 0 l 30 0 l 109 107 l 188 215 l 266 322 l 190 425 l 115 528 l 40 631 l 191 631 l 267 517 l 342 405 l 416 517 l 491 631 l 643 631 l 568 528 l 492 425 l 417 322 l 495 215 l 574 107 l 653 0 l 501 0 l 421 119 l 342 240 "},"V":{"x_min":55.953125,"x_max":923.109375,"ha":979,"o":"m 564 0 l 414 0 l 375 103 l 334 205 l 295 308 l 255 411 l 215 514 l 175 617 l 136 720 l 95 822 l 55 926 l 207 926 l 247 818 l 287 712 l 327 605 l 368 499 l 408 392 l 448 286 l 489 179 l 529 286 l 569 392 l 609 499 l 650 605 l 690 712 l 730 818 l 770 926 l 923 926 l 883 822 l 843 720 l 803 617 l 763 514 l 723 411 l 683 308 l 644 205 l 603 103 l 564 0 "},"Q":{"x_min":32.796875,"x_max":1008.953125,"ha":1042,"o":"m 1008 463 l 992 338 l 946 226 l 873 133 l 941 66 l 1008 0 l 862 0 l 793 67 l 665 8 l 520 -11 l 408 0 l 305 35 l 215 90 l 139 163 l 81 251 l 45 353 l 32 463 l 45 572 l 81 674 l 139 762 l 215 835 l 305 890 l 408 925 l 520 937 l 632 925 l 735 890 l 826 835 l 901 762 l 959 674 l 996 572 l 1008 463 m 520 117 l 612 130 l 694 164 l 601 255 l 509 347 l 654 347 l 773 231 l 836 335 l 859 463 l 842 573 l 793 668 l 720 742 l 627 790 l 520 808 l 413 790 l 321 742 l 247 668 l 199 573 l 182 463 l 199 352 l 247 257 l 321 183 l 413 135 l 520 117 "},"h":{"x_min":100.3125,"x_max":667.484375,"ha":748,"o":"m 399 643 l 512 622 l 596 565 l 649 476 l 667 365 l 667 244 l 667 121 l 667 0 l 549 0 l 549 118 l 549 236 l 549 354 l 500 479 l 377 531 l 293 515 l 218 464 l 218 348 l 218 232 l 218 115 l 218 0 l 100 0 l 100 115 l 100 231 l 100 347 l 100 463 l 100 578 l 100 694 l 100 810 l 100 926 l 218 926 l 218 811 l 218 697 l 218 582 l 302 626 l 399 643 "},"M":{"x_min":107.0625,"x_max":1053.328125,"ha":1161,"o":"m 1053 0 l 914 0 l 914 120 l 914 242 l 914 362 l 914 484 l 914 604 l 914 726 l 854 639 l 795 553 l 735 466 l 677 381 l 617 294 l 540 294 l 480 380 l 420 465 l 360 552 l 300 638 l 241 724 l 241 603 l 241 483 l 241 361 l 241 241 l 241 120 l 241 0 l 107 0 l 107 115 l 107 231 l 107 347 l 107 463 l 107 578 l 107 694 l 107 810 l 107 926 l 263 926 l 327 835 l 390 744 l 453 654 l 517 564 l 580 473 l 643 564 l 706 654 l 768 744 l 831 835 l 894 926 l 1053 926 l 1053 810 l 1053 694 l 1053 578 l 1053 463 l 1053 347 l 1053 231 l 1053 115 l 1053 0 "},"C":{"x_min":32.796875,"x_max":853.65625,"ha":900,"o":"m 510 937 l 646 922 l 759 879 l 853 815 l 853 659 l 760 739 l 650 790 l 528 808 l 418 790 l 324 743 l 248 669 l 199 574 l 182 463 l 199 351 l 248 256 l 324 182 l 418 135 l 528 117 l 650 136 l 760 186 l 853 266 l 853 110 l 759 45 l 646 2 l 510 -11 l 382 4 l 269 52 l 172 125 l 97 220 l 50 334 l 32 463 l 50 591 l 97 705 l 172 800 l 269 873 l 382 921 l 510 937 "},"f":{"x_min":54.015625,"x_max":390.65625,"ha":431,"o":"m 390 937 l 390 827 l 268 779 l 218 651 l 218 544 l 390 544 l 390 445 l 218 445 l 218 333 l 218 222 l 218 110 l 218 0 l 100 0 l 100 110 l 100 222 l 100 333 l 100 445 l 54 445 l 54 544 l 100 544 l 100 660 l 120 775 l 177 862 l 269 918 l 390 937 "},"L":{"x_min":122.5,"x_max":692.578125,"ha":721,"o":"m 261 129 l 369 129 l 476 129 l 584 129 l 692 129 l 692 0 l 578 0 l 464 0 l 350 0 l 236 0 l 122 0 l 122 115 l 122 231 l 122 347 l 122 463 l 122 578 l 122 694 l 122 810 l 122 926 l 261 926 l 261 812 l 261 698 l 261 584 l 261 470 l 261 356 l 261 243 l 261 129 "},"i":{"x_min":95.5,"x_max":246.9375,"ha":342,"o":"m 170 886 l 246 810 l 170 734 l 95 810 l 170 886 m 229 0 l 111 0 l 111 115 l 111 231 l 111 347 l 111 463 l 111 578 l 229 578 l 229 463 l 229 347 l 229 231 l 229 115 l 229 0 "},"A":{"x_min":55.953125,"x_max":923.109375,"ha":979,"o":"m 296 269 l 245 134 l 194 0 l 55 0 l 95 103 l 136 205 l 175 308 l 215 411 l 255 514 l 295 617 l 334 720 l 375 822 l 414 926 l 564 926 l 603 822 l 644 720 l 683 617 l 723 514 l 763 411 l 803 308 l 843 205 l 883 103 l 923 0 l 784 0 l 733 134 l 681 269 l 553 269 l 424 269 l 296 269 m 489 801 l 451 697 l 412 593 l 375 489 l 337 384 l 438 384 l 540 384 l 641 384 l 602 489 l 565 593 l 526 697 l 489 801 "},"n":{"x_min":100.3125,"x_max":667.484375,"ha":748,"o":"m 399 643 l 512 622 l 596 565 l 649 476 l 667 365 l 667 244 l 667 121 l 667 0 l 549 0 l 549 118 l 549 236 l 549 354 l 500 479 l 377 531 l 293 515 l 218 464 l 218 348 l 218 232 l 218 115 l 218 0 l 100 0 l 100 126 l 100 252 l 100 379 l 100 505 l 100 631 l 218 631 l 218 582 l 302 626 l 399 643 "},"O":{"x_min":32.796875,"x_max":1008.953125,"ha":1042,"o":"m 520 937 l 632 925 l 735 890 l 825 835 l 901 762 l 958 674 l 996 572 l 1008 463 l 996 353 l 958 251 l 901 163 l 825 90 l 735 35 l 632 0 l 520 -11 l 408 0 l 306 35 l 216 90 l 139 163 l 82 251 l 45 353 l 32 463 l 45 572 l 82 674 l 139 762 l 216 835 l 306 890 l 408 925 l 520 937 m 520 808 l 413 790 l 321 742 l 247 668 l 199 573 l 182 463 l 199 352 l 247 257 l 321 183 l 413 135 l 520 117 l 627 135 l 720 183 l 793 257 l 842 352 l 859 463 l 842 573 l 793 668 l 720 742 l 627 790 l 520 808 "}," ":{"x_min":0,"x_max":0,"ha":448},"X":{"x_min":27.015625,"x_max":889.34375,"ha":915,"o":"m 543 485 l 612 387 l 681 291 l 750 193 l 819 97 l 889 0 l 802 0 l 715 0 l 651 95 l 585 190 l 520 286 l 456 381 l 390 286 l 325 190 l 260 95 l 194 0 l 27 0 l 96 96 l 164 192 l 234 288 l 302 384 l 372 481 l 308 570 l 245 658 l 182 748 l 119 837 l 55 926 l 142 926 l 229 926 l 287 840 l 344 755 l 402 669 l 460 584 l 517 669 l 575 755 l 633 840 l 691 926 l 860 926 l 796 838 l 733 749 l 670 661 l 606 572 l 543 485 "},"P":{"x_min":107.0625,"x_max":724.40625,"ha":774,"o":"m 107 926 l 215 926 l 324 926 l 432 926 l 545 903 l 638 843 l 701 752 l 724 641 l 701 530 l 638 439 l 545 378 l 432 355 l 338 355 l 245 355 l 245 237 l 245 118 l 245 0 l 107 0 l 107 115 l 107 231 l 107 347 l 107 463 l 107 578 l 107 694 l 107 810 l 107 926 m 245 810 l 245 697 l 245 584 l 245 471 l 416 471 l 534 521 l 583 641 l 534 760 l 416 810 l 245 810 "},"m":{"x_min":100.3125,"x_max":1130.484375,"ha":1211,"o":"m 862 643 l 975 622 l 1059 565 l 1112 476 l 1130 365 l 1130 244 l 1130 121 l 1130 0 l 1012 0 l 1012 118 l 1012 236 l 1012 354 l 963 479 l 840 531 l 746 510 l 664 448 l 674 365 l 674 244 l 674 121 l 674 0 l 556 0 l 556 118 l 556 236 l 556 354 l 507 479 l 383 531 l 297 513 l 218 459 l 218 344 l 218 229 l 218 114 l 218 0 l 100 0 l 100 126 l 100 252 l 100 379 l 100 505 l 100 631 l 218 631 l 218 577 l 305 626 l 406 643 l 534 615 l 624 539 l 730 615 l 862 643 "},"l":{"x_min":103.203125,"x_max":393.546875,"ha":431,"o":"m 220 926 l 220 817 l 220 708 l 220 599 l 220 491 l 220 382 l 220 274 l 271 145 l 393 98 l 393 -11 l 272 7 l 181 63 l 123 150 l 103 265 l 103 375 l 103 485 l 103 595 l 103 706 l 103 816 l 103 926 l 220 926 "},"p":{"x_min":93.5625,"x_max":705.109375,"ha":748,"o":"m 387 643 l 514 618 l 614 549 l 681 445 l 705 315 l 681 185 l 616 81 l 517 13 l 392 -11 l 296 3 l 211 49 l 211 -65 l 211 -179 l 211 -294 l 93 -294 l 93 -178 l 93 -62 l 93 53 l 93 168 l 93 284 l 93 400 l 93 516 l 93 631 l 211 631 l 211 582 l 293 626 l 387 643 m 373 95 l 482 125 l 558 203 l 587 315 l 558 427 l 482 506 l 373 536 l 286 518 l 211 466 l 211 365 l 211 265 l 211 163 l 286 112 l 373 95 "},"R":{"x_min":116.71875,"x_max":791.921875,"ha":831,"o":"m 116 926 l 224 926 l 333 926 l 441 926 l 555 903 l 648 843 l 710 752 l 734 641 l 709 530 l 644 442 l 549 389 l 610 292 l 670 194 l 731 97 l 791 0 l 632 0 l 577 88 l 521 177 l 466 267 l 411 355 l 255 355 l 255 237 l 255 118 l 255 0 l 116 0 l 116 115 l 116 231 l 116 347 l 116 463 l 116 578 l 116 694 l 116 810 l 116 926 m 255 810 l 255 697 l 255 584 l 255 471 l 425 471 l 544 521 l 593 641 l 544 760 l 425 810 l 255 810 "},"o":{"x_min":41.484375,"x_max":705.109375,"ha":748,"o":"m 373 643 l 503 618 l 608 549 l 679 445 l 705 315 l 679 185 l 608 81 l 503 13 l 373 -11 l 243 13 l 137 81 l 67 185 l 41 315 l 67 445 l 137 549 l 243 618 l 373 643 m 373 536 l 265 506 l 189 427 l 160 315 l 189 203 l 265 125 l 373 95 l 481 125 l 558 203 l 587 315 l 558 427 l 481 506 l 373 536 "}}}
